<?xml version="1.0" encoding="utf-8"?>
<!-- Generator: Adobe Illustrator 18.1.1, SVG Export Plug-In . SVG Version: 6.00 Build 0)  -->
<svg version="1.1" id="_x33_dsMax_1_" xmlns="http://www.w3.org/2000/svg" xmlns:xlink="http://www.w3.org/1999/xlink" x="0px"
	 y="0px" viewBox="0 841.9 595.3 595.3" enable-background="new 0 841.9 595.3 595.3" xml:space="preserve">
<g id="Rectangle_1_copy_46">
	<g>
		<rect x="0.3" y="841.9" fill="#B42F25" width="594.6" height="594.6"/>
	</g>
</g>
<g id="Rectangle_1_copy_53" opacity="0.15">
	<g>
		<polygon points="449.7,1077.8 386,1105.8 428.2,1147.9 424.4,1149.6 354.7,1079.9 295,1093.3 268.5,1127.5 212.2,1071.2 
			124.2,1200.8 360,1436.5 594.9,1436.5 594.9,1223 		"/>
	</g>
</g>
<g enable-background="new    ">
	<path fill="#FFFFFF" d="M216.8,1201.9l-6.4-24.3h-42.1l-6.6,24.3h-38.5l42.3-130.2h46.7l42.8,130.2H216.8z M203.2,1148.8l-5.6-21.3
		c-1.3-4.7-2.9-10.9-4.7-18.4c-1.9-7.5-3.1-12.9-3.7-16.1c-0.5,3-1.6,8-3.1,14.9c-1.6,6.9-5,20.5-10.4,40.9H203.2z"/>
	<path fill="#FFFFFF" d="M354.9,1162.5c0,8-2,15.2-6.1,21.4c-4.1,6.2-10,11.1-17.7,14.5c-7.7,3.5-16.7,5.2-27.1,5.2
		c-8.6,0-15.9-0.6-21.7-1.8c-5.9-1.2-11.9-3.3-18.3-6.3v-31.2c6.7,3.4,13.6,6.1,20.8,8c7.2,1.9,13.8,2.9,19.9,2.9
		c5.2,0,9-0.9,11.4-2.7c2.4-1.8,3.6-4.1,3.6-7c0-1.8-0.5-3.3-1.5-4.7s-2.5-2.7-4.7-4c-2.2-1.4-7.9-4.1-17.3-8.3
		c-8.5-3.8-14.8-7.6-19-11.2c-4.2-3.6-7.4-7.7-9.4-12.4c-2-4.7-3.1-10.2-3.1-16.6c0-11.9,4.3-21.3,13-27.9c8.7-6.7,20.6-10,35.8-10
		c13.4,0,27.1,3.1,41.1,9.3l-10.7,27.1c-12.1-5.6-22.6-8.3-31.4-8.3c-4.6,0-7.9,0.8-9.9,2.4c-2.1,1.6-3.1,3.6-3.1,5.9
		c0,2.5,1.3,4.8,3.9,6.8c2.6,2,9.8,5.7,21.4,11c11.2,5,18.9,10.4,23.3,16.2S354.9,1153.7,354.9,1162.5z"/>
	<path fill="#FFFFFF" d="M457,1100.3c0,8-2.5,14.9-7.4,20.7c-4.9,5.8-12,10-21.3,12.6v0.5c21.6,2.7,32.5,13,32.5,30.7
		c0,12.1-4.8,21.6-14.3,28.5c-9.6,6.9-22.8,10.4-39.8,10.4c-7,0-13.4-0.5-19.4-1.5c-5.9-1-12.4-2.8-19.3-5.5v-29.1
		c5.7,2.9,11.5,5,17.3,6.4c5.9,1.4,11.3,2.1,16.3,2.1c7.7,0,13.3-1.1,16.8-3.2c3.5-2.2,5.3-5.5,5.3-10.2c0-3.5-0.9-6.3-2.8-8.2
		c-1.8-1.9-4.8-3.4-8.9-4.3c-4.1-1-9.4-1.5-16-1.5h-8v-26.3h8.2c17.8,0,26.7-4.6,26.7-13.7c0-3.4-1.3-6-3.9-7.6
		c-2.6-1.7-6.2-2.5-10.6-2.5c-8.3,0-16.9,2.8-25.7,8.3l-14.5-23.4c6.9-4.7,13.9-8.1,21.1-10.1c7.2-2,15.4-3,24.7-3
		c13.4,0,23.9,2.7,31.6,8C453.2,1083.6,457,1090.9,457,1100.3z"/>
</g>
</svg>
